<mxfile host="65bd71144e">
    <diagram id="0nmvTfrTeX1Rg3ekf0Fh" name="Page-1">
        <mxGraphModel dx="593" dy="811" grid="1" gridSize="10" guides="1" tooltips="1" connect="1" arrows="1" fold="1" page="1" pageScale="1" pageWidth="850" pageHeight="1100" background="none" math="0" shadow="0">
            <root>
                <mxCell id="0"/>
                <mxCell id="1" parent="0"/>
                <mxCell id="14" value="" style="rounded=1;whiteSpace=wrap;html=1;fontSize=16;strokeColor=#999999;dashed=1;fillColor=none;" parent="1" vertex="1">
                    <mxGeometry x="40" y="493" width="180" height="115" as="geometry"/>
                </mxCell>
                <mxCell id="15" value="" style="html=1;verticalLabelPosition=bottom;align=center;labelBackgroundColor=#000000;verticalAlign=top;strokeWidth=2;strokeColor=#0080F0;shadow=0;dashed=0;shape=mxgraph.ios7.icons.folder;fontSize=16;fillColor=none;" parent="1" vertex="1">
                    <mxGeometry x="60" y="508.45" width="30" height="19.5" as="geometry"/>
                </mxCell>
                <mxCell id="16" value="" style="endArrow=none;html=1;fontSize=16;entryX=0.596;entryY=1.071;entryDx=0;entryDy=0;entryPerimeter=0;strokeColor=#999999;" parent="1" target="15" edge="1">
                    <mxGeometry width="50" height="50" relative="1" as="geometry">
                        <mxPoint x="78" y="558.45" as="sourcePoint"/>
                        <mxPoint x="120" y="498.45" as="targetPoint"/>
                    </mxGeometry>
                </mxCell>
                <mxCell id="17" value="" style="endArrow=none;html=1;fontSize=16;strokeColor=#999999;" parent="1" edge="1">
                    <mxGeometry width="50" height="50" relative="1" as="geometry">
                        <mxPoint x="80" y="543.45" as="sourcePoint"/>
                        <mxPoint x="129.75" y="558.45" as="targetPoint"/>
                        <Array as="points">
                            <mxPoint x="130" y="543.45"/>
                        </Array>
                    </mxGeometry>
                </mxCell>
                <mxCell id="18" value="" style="endArrow=none;html=1;fontSize=16;strokeColor=#999999;" parent="1" edge="1">
                    <mxGeometry width="50" height="50" relative="1" as="geometry">
                        <mxPoint x="110" y="543.45" as="sourcePoint"/>
                        <mxPoint x="179.75" y="558.45" as="targetPoint"/>
                        <Array as="points">
                            <mxPoint x="180" y="543.45"/>
                        </Array>
                    </mxGeometry>
                </mxCell>
                <mxCell id="19" value="" style="html=1;verticalLabelPosition=bottom;align=center;labelBackgroundColor=#000000;verticalAlign=top;strokeWidth=2;strokeColor=#0080F0;shadow=0;dashed=0;shape=mxgraph.ios7.icons.document;fontSize=16;fillColor=none;" parent="1" vertex="1">
                    <mxGeometry x="120" y="558.45" width="21" height="30" as="geometry"/>
                </mxCell>
                <mxCell id="20" value="" style="html=1;verticalLabelPosition=bottom;align=center;labelBackgroundColor=#000000;verticalAlign=top;strokeWidth=2;strokeColor=#0080F0;shadow=0;dashed=0;shape=mxgraph.ios7.icons.data;fillColor=none;" parent="1" vertex="1">
                    <mxGeometry x="167" y="558.9000000000001" width="24" height="29.099999999999998" as="geometry"/>
                </mxCell>
                <mxCell id="21" value=".git" style="text;html=1;strokeColor=none;fillColor=none;align=center;verticalAlign=middle;whiteSpace=wrap;rounded=0;fontColor=#000000;" parent="1" vertex="1">
                    <mxGeometry x="159" y="588" width="40" height="20" as="geometry"/>
                </mxCell>
                <mxCell id="22" value="" style="html=1;verticalLabelPosition=bottom;align=center;labelBackgroundColor=#000000;verticalAlign=top;strokeWidth=2;strokeColor=#0080F0;shadow=0;dashed=0;shape=mxgraph.ios7.icons.folder;fontSize=16;fillColor=none;" parent="1" vertex="1">
                    <mxGeometry x="64" y="563.7" width="30" height="19.5" as="geometry"/>
                </mxCell>
                <mxCell id="44" value="" style="rounded=1;whiteSpace=wrap;html=1;fontSize=16;strokeColor=#000000;dashed=1;fillColor=none;" parent="1" vertex="1">
                    <mxGeometry x="350" y="473.2" width="110" height="90" as="geometry"/>
                </mxCell>
                <mxCell id="45" value="" style="html=1;verticalLabelPosition=bottom;align=center;labelBackgroundColor=#000000;verticalAlign=top;strokeWidth=2;strokeColor=#0080F0;shadow=0;dashed=0;shape=mxgraph.ios7.icons.folder;fontSize=16;fillColor=none;" parent="1" vertex="1">
                    <mxGeometry x="360" y="478.2" width="30" height="19.5" as="geometry"/>
                </mxCell>
                <mxCell id="46" value="" style="endArrow=none;html=1;fontSize=16;entryX=0.596;entryY=1.071;entryDx=0;entryDy=0;entryPerimeter=0;strokeColor=#999999;" parent="1" target="45" edge="1">
                    <mxGeometry width="50" height="50" relative="1" as="geometry">
                        <mxPoint x="378" y="528.2" as="sourcePoint"/>
                        <mxPoint x="420" y="468.2" as="targetPoint"/>
                    </mxGeometry>
                </mxCell>
                <mxCell id="47" value="" style="endArrow=none;html=1;fontSize=16;strokeColor=#999999;" parent="1" edge="1">
                    <mxGeometry width="50" height="50" relative="1" as="geometry">
                        <mxPoint x="380" y="513.2" as="sourcePoint"/>
                        <mxPoint x="429.75" y="528.2" as="targetPoint"/>
                        <Array as="points">
                            <mxPoint x="430" y="513.2"/>
                        </Array>
                    </mxGeometry>
                </mxCell>
                <mxCell id="49" value="" style="html=1;verticalLabelPosition=bottom;align=center;labelBackgroundColor=#000000;verticalAlign=top;strokeWidth=2;strokeColor=#0080F0;shadow=0;dashed=0;shape=mxgraph.ios7.icons.document;fontSize=16;fillColor=none;" parent="1" vertex="1">
                    <mxGeometry x="419.5" y="528.2" width="21" height="30" as="geometry"/>
                </mxCell>
                <mxCell id="52" value="" style="html=1;verticalLabelPosition=bottom;align=center;labelBackgroundColor=#000000;verticalAlign=top;strokeWidth=2;strokeColor=#0080F0;shadow=0;dashed=0;shape=mxgraph.ios7.icons.folder;fontSize=16;fillColor=none;" parent="1" vertex="1">
                    <mxGeometry x="366" y="533.45" width="30" height="19.5" as="geometry"/>
                </mxCell>
                <mxCell id="53" value="" style="shape=curlyBracket;whiteSpace=wrap;html=1;rounded=1;fillColor=#000000;strokeColor=#000000;rotation=0;" parent="1" vertex="1">
                    <mxGeometry x="196" y="463.45" width="60" height="220" as="geometry"/>
                </mxCell>
                <mxCell id="56" value="&lt;font color=&quot;#000000&quot;&gt;xkmf04lfgli&lt;/font&gt;" style="rounded=0;whiteSpace=wrap;html=1;strokeColor=#000000;fillColor=none;" parent="1" vertex="1">
                    <mxGeometry x="240" y="476.4" width="85" height="34.55" as="geometry"/>
                </mxCell>
                <mxCell id="57" value="&lt;font color=&quot;#000000&quot;&gt;g9fhgm0as&lt;/font&gt;" style="rounded=0;whiteSpace=wrap;html=1;strokeColor=#000000;fillColor=none;" parent="1" vertex="1">
                    <mxGeometry x="240" y="531.6500000000001" width="85" height="34.55" as="geometry"/>
                </mxCell>
                <mxCell id="58" value="&lt;font color=&quot;#000000&quot;&gt;lkk08dihcz&lt;/font&gt;" style="rounded=0;whiteSpace=wrap;html=1;strokeColor=#000000;fillColor=none;" parent="1" vertex="1">
                    <mxGeometry x="240" y="585.7" width="85" height="34.55" as="geometry"/>
                </mxCell>
                <mxCell id="59" value="&lt;font color=&quot;#000000&quot;&gt;q2f21ujaw&lt;/font&gt;" style="rounded=0;whiteSpace=wrap;html=1;strokeColor=#000000;fillColor=none;" parent="1" vertex="1">
                    <mxGeometry x="240" y="635.95" width="85" height="34.55" as="geometry"/>
                </mxCell>
                <mxCell id="60" value="" style="endArrow=classic;html=1;fontColor=#000000;entryX=0.5;entryY=1;entryDx=0;entryDy=0;strokeColor=#000000;" parent="1" target="58" edge="1">
                    <mxGeometry width="50" height="50" relative="1" as="geometry">
                        <mxPoint x="283" y="635.95" as="sourcePoint"/>
                        <mxPoint x="367" y="545.95" as="targetPoint"/>
                        <Array as="points">
                            <mxPoint x="283" y="619.95"/>
                        </Array>
                    </mxGeometry>
                </mxCell>
                <mxCell id="64" value="" style="endArrow=classic;html=1;fontColor=#000000;entryX=0.5;entryY=1;entryDx=0;entryDy=0;strokeColor=#000000;" parent="1" edge="1">
                    <mxGeometry width="50" height="50" relative="1" as="geometry">
                        <mxPoint x="282.75" y="583.95" as="sourcePoint"/>
                        <mxPoint x="282.25" y="568.2500000000001" as="targetPoint"/>
                        <Array as="points">
                            <mxPoint x="282.75" y="567.95"/>
                        </Array>
                    </mxGeometry>
                </mxCell>
                <mxCell id="65" value="" style="endArrow=classic;html=1;fontColor=#000000;entryX=0.5;entryY=1;entryDx=0;entryDy=0;strokeColor=#000000;" parent="1" edge="1">
                    <mxGeometry width="50" height="50" relative="1" as="geometry">
                        <mxPoint x="282.75" y="528.7" as="sourcePoint"/>
                        <mxPoint x="282.25" y="513.0000000000001" as="targetPoint"/>
                        <Array as="points">
                            <mxPoint x="282.75" y="512.7"/>
                        </Array>
                    </mxGeometry>
                </mxCell>
                <mxCell id="71" value="" style="endArrow=none;html=1;fontColor=#000000;strokeColor=#000000;" parent="1" edge="1">
                    <mxGeometry width="50" height="50" relative="1" as="geometry">
                        <mxPoint x="350" y="494" as="sourcePoint"/>
                        <mxPoint x="330" y="494" as="targetPoint"/>
                    </mxGeometry>
                </mxCell>
            </root>
        </mxGraphModel>
    </diagram>
</mxfile>